<svg id="Laag_1" data-name="Laag 1" xmlns="http://www.w3.org/2000/svg" viewBox="0 0 253.34 46.5"><defs><style>.cls-1{fill:#fff;}.cls-2{fill:#12100e;}.cls-3{fill:none;stroke:#fff;stroke-linecap:round;stroke-linejoin:round;stroke-width:0.89px;}</style></defs><rect class="cls-1" x="-31.92" y="-18.55" width="730.37" height="1085.93"/><rect class="cls-2" width="253.34" height="46.5"/><path class="cls-1" d="M17.87,9.49H14.34V7.14H24V9.49H20.43v9.25H17.87Z"/><path class="cls-1" d="M25.24,6.64h2.52v4.48a3.13,3.13,0,0,1,2.6-1.43c1.9,0,3,1.26,3,3.3v5.75H30.85v-5c0-1.19-.56-1.8-1.52-1.8s-1.57.61-1.57,1.8v5H25.24Z"/><path class="cls-1" d="M35.28,6.64h2.65V8.88H35.28Zm.07,3.22h2.52v8.88H35.35Z"/><path class="cls-1" d="M39.21,17.56l1.08-1.66A5,5,0,0,0,43.09,17c.73,0,1.06-.26,1.06-.66v0c0-.55-.86-.73-1.84-1-1.24-.36-2.65-.94-2.65-2.67v0c0-1.81,1.46-2.82,3.25-2.82a6.12,6.12,0,0,1,3.31,1l-1,1.74a5.33,5.33,0,0,0-2.4-.83c-.62,0-.93.27-.93.61v0c0,.5.84.73,1.81,1.06,1.24.41,2.68,1,2.68,2.63v0c0,2-1.48,2.86-3.4,2.86A6.22,6.22,0,0,1,39.21,17.56Z"/><path class="cls-1" d="M52.54,9.86h2.52v1.79a2.73,2.73,0,0,1,2.83-2v2.63h-.13c-1.67,0-2.7,1-2.7,3.14v3.28H52.54Z"/><path class="cls-1" d="M58.46,14.35v0a4.42,4.42,0,0,1,4.39-4.62c3,0,4.32,2.3,4.32,4.82,0,.2,0,.43,0,.66H61a2.05,2.05,0,0,0,2.17,1.74A2.91,2.91,0,0,0,65.29,16l1.44,1.28a4.69,4.69,0,0,1-8.27-2.93Zm6.26-.75a1.9,1.9,0,0,0-1.87-1.89c-1.05,0-1.72.75-1.92,1.89Z"/><path class="cls-1" d="M68.29,14.35v0a4.56,4.56,0,0,1,4.65-4.62,4.36,4.36,0,0,1,3.55,1.49L75,12.84a2.58,2.58,0,0,0-2-1,2.27,2.27,0,0,0-2.16,2.42v0A2.28,2.28,0,0,0,73,16.77a2.84,2.84,0,0,0,2-.95l1.47,1.49a4.46,4.46,0,0,1-3.63,1.63A4.53,4.53,0,0,1,68.29,14.35Z"/><path class="cls-1" d="M77.17,14.35v0a4.42,4.42,0,0,1,4.39-4.62c3,0,4.33,2.3,4.33,4.82,0,.2,0,.43,0,.66H79.68a2,2,0,0,0,2.17,1.74A2.9,2.9,0,0,0,84,16l1.44,1.28a4.69,4.69,0,0,1-8.27-2.93Zm6.27-.75a1.9,1.9,0,0,0-1.88-1.89,2,2,0,0,0-1.92,1.89Z"/><path class="cls-1" d="M87.48,6.64h2.66V8.88H87.48Zm.07,3.22h2.52v8.88H87.55Z"/><path class="cls-1" d="M92.11,9.86h2.52v1.27A3.26,3.26,0,0,1,97.4,9.69c2.07,0,4,1.62,4,4.59v0c0,3-1.94,4.59-4,4.59a3.4,3.4,0,0,1-2.77-1.32v3.81H92.11Zm6.81,4.45v0a2.18,2.18,0,1,0-4.33,0v0a2.18,2.18,0,1,0,4.33,0Z"/><path class="cls-1" d="M103.38,16.22V12h-1.06V9.86h1.06V7.59h2.52V9.86H108V12H105.9V15.8c0,.58.25.87.81.87a2.58,2.58,0,0,0,1.25-.32v2a3.69,3.69,0,0,1-2,.52C104.43,18.89,103.38,18.27,103.38,16.22Z"/><path class="cls-1" d="M114.21,6.64h2.65V8.88h-2.65Zm.06,3.22h2.52v8.88h-2.52Z"/><path class="cls-1" d="M118.14,17.56l1.07-1.66A5,5,0,0,0,122,17c.73,0,1.06-.26,1.06-.66v0c0-.55-.86-.73-1.84-1-1.24-.36-2.65-.94-2.65-2.67v0c0-1.81,1.46-2.82,3.25-2.82a6.15,6.15,0,0,1,3.32,1l-1,1.74a5.26,5.26,0,0,0-2.4-.83c-.61,0-.93.27-.93.61v0c0,.5.85.73,1.81,1.06,1.24.41,2.68,1,2.68,2.63v0c0,2-1.47,2.86-3.39,2.86A6.17,6.17,0,0,1,118.14,17.56Z"/><path class="cls-1" d="M130.73,9.86h2.56l1.42,5.38,1.68-5.42h2.17l1.69,5.44,1.46-5.4h2.5l-2.77,8.94h-2.27l-1.71-5.45-1.74,5.45h-2.25Z"/><path class="cls-1" d="M144.56,14.35v0a4.81,4.81,0,0,1,9.61,0v0a4.81,4.81,0,0,1-9.61,0Zm7.13,0v0a2.36,2.36,0,0,0-2.34-2.45,2.27,2.27,0,0,0-2.3,2.42v0a2.36,2.36,0,0,0,2.33,2.46A2.28,2.28,0,0,0,151.69,14.35Z"/><path class="cls-1" d="M155.67,9.86h2.52v1.79a2.73,2.73,0,0,1,2.83-2v2.63h-.13c-1.68,0-2.7,1-2.7,3.14v3.28h-2.52Z"/><path class="cls-1" d="M162.68,16.22V12h-1.06V9.86h1.06V7.59h2.52V9.86h2.09V12H165.2V15.8c0,.58.25.87.81.87a2.54,2.54,0,0,0,1.24-.32v2a3.66,3.66,0,0,1-2,.52C163.72,18.89,162.68,18.27,162.68,16.22Z"/><path class="cls-1" d="M168.81,6.64h2.52v4.48a3.14,3.14,0,0,1,2.6-1.43c1.91,0,3,1.26,3,3.3v5.75h-2.52v-5c0-1.19-.56-1.8-1.52-1.8s-1.58.61-1.58,1.8v5h-2.52Z"/><path class="cls-1" d="M183.45,9.86H186v1.26a3.16,3.16,0,0,1,2.62-1.43,2.64,2.64,0,0,1,2.5,1.41A3.67,3.67,0,0,1,194,9.69c1.87,0,3,1.13,3,3.26v5.79h-2.52v-5c0-1.19-.53-1.8-1.48-1.8s-1.52.61-1.52,1.8v5H189v-5c0-1.19-.53-1.8-1.48-1.8s-1.52.61-1.52,1.8v5h-2.52Z"/><path class="cls-1" d="M198.44,14.35v0a4.81,4.81,0,0,1,9.61,0v0a4.81,4.81,0,0,1-9.61,0Zm7.12,0v0a2.35,2.35,0,0,0-2.33-2.45,2.28,2.28,0,0,0-2.31,2.42v0a2.37,2.37,0,0,0,2.34,2.46A2.27,2.27,0,0,0,205.56,14.35Z"/><path class="cls-1" d="M209.54,9.86h2.52v1.26a3.14,3.14,0,0,1,2.6-1.43c1.91,0,3,1.26,3,3.3v5.75h-2.52v-5c0-1.19-.56-1.8-1.52-1.8s-1.58.61-1.58,1.8v5h-2.52Z"/><path class="cls-1" d="M219.11,14.35v0a4.42,4.42,0,0,1,4.39-4.62c3,0,4.33,2.3,4.33,4.82,0,.2,0,.43,0,.66h-6.18a2.06,2.06,0,0,0,2.17,1.74,2.91,2.91,0,0,0,2.16-.91l1.44,1.28a4.69,4.69,0,0,1-8.27-2.93Zm6.26-.75a1.9,1.9,0,0,0-1.87-1.89,2,2,0,0,0-1.92,1.89Z"/><path class="cls-1" d="M228.84,20.83l.85-1.83a2.25,2.25,0,0,0,1.07.35.84.84,0,0,0,.88-.58l-3.48-8.91h2.67l2,6,1.94-6h2.62L234,19c-.68,1.81-1.4,2.49-2.91,2.49A4.2,4.2,0,0,1,228.84,20.83Z"/><path class="cls-1" d="M238.65,7.47V7.14h2.95v.33l-.77,7.32h-1.4Zm.14,8.62h2.68v2.65h-2.68Z"/><path class="cls-1" d="M54.39,27.47h4a5.08,5.08,0,0,1,5.42,5.07v0a5.1,5.1,0,0,1-5.42,5.1h-4Zm4,8.18a2.91,2.91,0,0,0,3.08-3v0a2.93,2.93,0,0,0-3.08-3.07H56.64v6.15Z"/><path class="cls-1" d="M65.18,33.81v0a4.1,4.1,0,0,1,4.24-4.06,4.06,4.06,0,0,1,4.21,4v0a4.23,4.23,0,0,1-8.45,0Zm6.27,0v0a2.07,2.07,0,0,0-2.06-2.15,2,2,0,0,0-2,2.12v0a2.08,2.08,0,0,0,2,2.16A2,2,0,0,0,71.45,33.81Z"/><path class="cls-1" d="M79.61,29.86h2.22V31a2.74,2.74,0,0,1,2.29-1.25c1.67,0,2.65,1.1,2.65,2.9v5.05H84.55V33.32c0-1-.49-1.59-1.34-1.59s-1.38.54-1.38,1.59v4.35H79.61Z"/><path class="cls-1" d="M88.32,33.81v0a4.23,4.23,0,0,1,8.45,0v0a4.1,4.1,0,0,1-4.24,4.07A4.06,4.06,0,0,1,88.32,33.81Zm6.26,0v0a2.07,2.07,0,0,0-2-2.15,2,2,0,0,0-2,2.12v0a2.08,2.08,0,0,0,2.06,2.16A2,2,0,0,0,94.58,33.81Z"/><path class="cls-1" d="M98.74,35.46v-3.7H97.8v-1.9h.94v-2H101v2h1.84v1.9H101v3.33c0,.51.22.76.72.76a2.21,2.21,0,0,0,1.09-.28v1.78a3.26,3.26,0,0,1-1.75.45C99.66,37.8,98.74,37.26,98.74,35.46Z"/><path class="cls-1" d="M109.16,35.46v-3.7h-.93v-1.9h.93v-2h2.22v2h1.83v1.9h-1.83v3.33c0,.51.21.76.71.76a2.18,2.18,0,0,0,1.09-.28v1.78a3.21,3.21,0,0,1-1.75.45C110.08,37.8,109.16,37.26,109.16,35.46Z"/><path class="cls-1" d="M114.85,27h2.21V31a2.76,2.76,0,0,1,2.29-1.25c1.67,0,2.65,1.1,2.65,2.9v5.05h-2.21V33.32c0-1-.5-1.59-1.35-1.59s-1.38.54-1.38,1.59v4.35h-2.21Z"/><path class="cls-1" d="M123.93,29.86h2.21v1.58a2.41,2.41,0,0,1,2.49-1.72V32h-.11c-1.47,0-2.38.89-2.38,2.76v2.88h-2.21Z"/><path class="cls-1" d="M129.42,33.81v0a4.1,4.1,0,0,1,4.24-4.06,4.06,4.06,0,0,1,4.21,4v0a4.23,4.23,0,0,1-8.45,0Zm6.27,0v0a2.07,2.07,0,0,0-2.06-2.15,2,2,0,0,0-2,2.12v0a2.08,2.08,0,0,0,2,2.16A2,2,0,0,0,135.69,33.81Z"/><path class="cls-1" d="M138.48,29.86h2.24L142,34.6l1.47-4.77h1.91l1.49,4.78,1.28-4.75h2.2l-2.43,7.87h-2l-1.5-4.79-1.53,4.79h-2Z"/><path class="cls-1" d="M155.57,35.43v0c0-1.71,1.3-2.49,3.15-2.49a5.51,5.51,0,0,1,1.91.32V33.1c0-.92-.57-1.43-1.67-1.43a5.77,5.77,0,0,0-2.16.42l-.55-1.69a6.82,6.82,0,0,1,3-.63,3.6,3.6,0,0,1,2.63.88,3.37,3.37,0,0,1,.85,2.49v4.53h-2.14v-.84a3,3,0,0,1-2.36,1A2.42,2.42,0,0,1,155.57,35.43Zm5.09-.51v-.39a3.34,3.34,0,0,0-1.41-.3c-.95,0-1.53.38-1.53,1.08v0c0,.6.49.95,1.21.95C160,36.29,160.66,35.72,160.66,34.92Z"/><path class="cls-1" d="M163.74,29.86H166l1.26,4.74,1.47-4.77h1.91l1.48,4.78,1.28-4.75h2.21l-2.44,7.87h-2l-1.51-4.79-1.52,4.79h-2Z"/><path class="cls-1" d="M176.17,35.43v0c0-1.71,1.3-2.49,3.15-2.49a5.51,5.51,0,0,1,1.91.32V33.1c0-.92-.57-1.43-1.68-1.43a5.76,5.76,0,0,0-2.15.42l-.56-1.69a6.89,6.89,0,0,1,3-.63,3.62,3.62,0,0,1,2.64.88,3.41,3.41,0,0,1,.85,2.49v4.53h-2.14v-.84a3,3,0,0,1-2.37,1A2.42,2.42,0,0,1,176.17,35.43Zm5.09-.51v-.39a3.38,3.38,0,0,0-1.42-.3c-.94,0-1.52.38-1.52,1.08v0c0,.6.49.95,1.2.95C180.56,36.29,181.26,35.72,181.26,34.92Z"/><path class="cls-1" d="M184.88,39.51l.74-1.6a2.07,2.07,0,0,0,.95.3.73.73,0,0,0,.77-.51l-3.06-7.84h2.35l1.77,5.32,1.71-5.32h2.3l-3,8c-.6,1.59-1.24,2.19-2.57,2.19A3.67,3.67,0,0,1,184.88,39.51Z"/><circle class="cls-3" cx="216.49" cy="29.75" r="6.66"/><path class="cls-3" d="M209.85,30.22l-.47,0a6.66,6.66,0,1,0,6.67,6.66c0-.16,0-.31,0-.47"/><line class="cls-3" x1="216.49" y1="32.42" x2="216.49" y2="33.31"/><line class="cls-3" x1="216.49" y1="26.2" x2="216.49" y2="27.09"/><path class="cls-3" d="M215.16,31.08a1.33,1.33,0,1,0,1.33-1.33,1.33,1.33,0,1,1,1.33-1.33"/><path class="cls-3" d="M210.27,40.22a3.11,3.11,0,0,1,0-6.22"/><line class="cls-3" x1="206.27" y1="36.22" x2="209.83" y2="36.22"/><line class="cls-3" x1="206.27" y1="38" x2="209.83" y2="38"/><circle class="cls-3" cx="30.19" cy="29.75" r="6.66"/><path class="cls-3" d="M36.83,30.22l.47,0a6.66,6.66,0,1,1-6.66,6.66c0-.16,0-.31,0-.47"/><path class="cls-3" d="M31.64,32.86a3.11,3.11,0,0,1,0-6.22"/><line class="cls-3" x1="27.64" y1="28.86" x2="31.19" y2="28.86"/><line class="cls-3" x1="27.64" y1="30.64" x2="31.19" y2="30.64"/><line class="cls-3" x1="37.3" y1="40.02" x2="37.3" y2="40.91"/><line class="cls-3" x1="37.3" y1="33.8" x2="37.3" y2="34.69"/><path class="cls-3" d="M36,38.68a1.33,1.33,0,1,0,1.33-1.33A1.33,1.33,0,1,1,38.63,36"/></svg>